<?xml version="1.0" encoding="UTF-8" standalone="no"?>
<!DOCTYPE svg PUBLIC "-//W3C//DTD SVG 1.1//EN" "http://www.w3.org/Graphics/SVG/1.1/DTD/svg11.dtd">
<svg width="100%" height="100%" viewBox="0 0 909 588" version="1.1" xmlns="http://www.w3.org/2000/svg" xmlns:xlink="http://www.w3.org/1999/xlink" xml:space="preserve" xmlns:serif="http://www.serif.com/" style="fill-rule:evenodd;clip-rule:evenodd;stroke-linecap:round;stroke-linejoin:round;stroke-miterlimit:1.5;">
    <g transform="matrix(1,0,0,1,-12612.1,-3242.48)">
        <g transform="matrix(1,0,0,4.42417,12422.8,6422.19)">
            <g transform="matrix(1,0,0,0.226031,-12533.1,-1444.93)">
                <path d="M12722.4,3571.11L12771.5,3586.37L12893.7,3631.84L13116.1,3716.68L13308.1,3775.65L13464,3800.48L13564.4,3772.09L13630.4,3652.03L13622.3,3531.62L13568.4,3442.43L13486.2,3413.21L13419.3,3422.71L13384.6,3298.95L13333.4,3257.66L13183.4,3212.91L13086.1,3228.39L13003.1,3240.48L12964.6,3274.07L12943.6,3496.08L12838.9,3524.72L12738.2,3552.91" style="fill:rgb(116,76,61);"/>
                <clipPath id="_clip1">
                    <path d="M12722.4,3571.11L12771.5,3586.37L12893.7,3631.84L13116.1,3716.68L13308.1,3775.65L13464,3800.48L13564.4,3772.09L13630.4,3652.03L13622.3,3531.62L13568.4,3442.43L13486.2,3413.21L13419.3,3422.71L13384.6,3298.95L13333.4,3257.66L13183.4,3212.91L13086.1,3228.39L13003.1,3240.48L12964.6,3274.07L12943.6,3496.08L12838.9,3524.72L12738.2,3552.91"/>
                </clipPath>
                <g clip-path="url(#_clip1)">
                    <path d="M13021.7,3258.45L13140.5,3261.73L13208.5,3307.74L13194.2,3352.88L13146.1,3357.33L13098.8,3361.42L13025.2,3331.15L13021.7,3258.45Z" style="fill:rgb(101,66,53);"/>
                    <path d="M13416.3,3415.13L13439,3538.9L13519.2,3593.43L13611.5,3619.02L13644,3591.18L13627.9,3439.53L13528.2,3393.11L13416.3,3415.13Z" style="fill:rgb(94,59,47);"/>
                    <path d="M13305.8,3325.85L13256.9,3292.27L13182.2,3248.43L13092.3,3231.32L13109.2,3205.98L13201,3227.59L13263.9,3256.14L13306.5,3276.86L13333.9,3296.11L13337.5,3312.54L13305.8,3325.85" style="fill:rgb(94,59,47);"/>
                    <path d="M12935.9,3565.66L13032.4,3625.26L13166.8,3705.67L13209.5,3757.53L12883.2,3747.25L12674.8,3625.94L12687.7,3545.49L12732.1,3576.21" style="fill:rgb(101,66,53);"/>
                    <path d="M12939.6,3530.98L12939.9,3527.28L12936.2,3566.99L12971.8,3602.1L13105.6,3644.8L13213.6,3653.78L13304.1,3652.34L13396.6,3630.78L13445.9,3585.2L13439.3,3549.57L13435.5,3568.91L13373.3,3607.46L13292.4,3623.15L13170.8,3624.05L13068.4,3604.35L12973.2,3571.29L12945.2,3548.94" style="fill:rgb(135,183,189);"/>
                    <g transform="matrix(0.386358,0.0710515,-0.0310185,0.462088,8123.29,944.84)">
                        <circle cx="13020" cy="3483.39" r="14.718" style="fill:rgb(94,59,47);stroke:rgb(135,183,189);stroke-width:6.62px;"/>
                    </g>
                    <g transform="matrix(0.379972,0.166194,-0.0310185,0.462088,8176.64,-300.082)">
                        <circle cx="13020" cy="3483.39" r="14.718" style="fill:rgb(94,59,47);stroke:rgb(135,183,189);stroke-width:5.9px;"/>
                    </g>
                    <g transform="matrix(0.379972,0.166194,-0.0310185,0.462088,8148,-316.92)">
                        <circle cx="13020" cy="3483.39" r="14.718" style="fill:rgb(94,59,47);stroke:rgb(135,183,189);stroke-width:5.9px;"/>
                    </g>
                </g>
            </g>
        </g>
    </g>
</svg>
