<?xml version="1.0" encoding="UTF-8" standalone="no"?>
<!DOCTYPE svg PUBLIC "-//W3C//DTD SVG 1.1//EN" "http://www.w3.org/Graphics/SVG/1.1/DTD/svg11.dtd">
<svg width="100%" height="100%" viewBox="0 0 1011 449" version="1.1" xmlns="http://www.w3.org/2000/svg" xmlns:xlink="http://www.w3.org/1999/xlink" xml:space="preserve" xmlns:serif="http://www.serif.com/" style="fill-rule:evenodd;clip-rule:evenodd;stroke-linejoin:round;stroke-miterlimit:1.41421;">
    <g transform="matrix(1,0,0,1,-4841.91,-1374.57)">
        <g transform="matrix(6.45239,0,0,4.17975,-6764.53,-1550.47)">
            <g id="background-mesa" serif:id="background mesa" transform="matrix(0.154981,0,0,0.239249,1461.15,370.949)">
                <path d="M2775.68,1387.36L2746.62,1383.15L2743.45,1379.43L2722.11,1377.45L2699.48,1379.25L2689.78,1378.57L2671.43,1384.92L2658.04,1384.21L2644.53,1378.5L2629.08,1374.57L2598.9,1377.07L2572.96,1391.05L2572.58,1419.43L2564.84,1428.5L2558.27,1433.66L2560.71,1548.25L2554.14,1557.03L2555.69,1581.99L2484,1619.17L2480.36,1628.97L2419.85,1662.17L2419.2,1628.01L2411.54,1624.01L2402.87,1626.82L2401.69,1639.65L2389.24,1646.72L2383.81,1641.86L2377.04,1647.69L2372.92,1676.35L2347.25,1682.95L2345.31,1689.08L2305.48,1706.93L2289.19,1707.7L2272.62,1708.94L2266.31,1721.62L2178.53,1770.49L2520.93,1822.73L3189.03,1788.84L3084.74,1714.39L3038.18,1700.68L3021.52,1696.74L3017.82,1691.68L3005.17,1683.95L2954.41,1655.5L2934.61,1646.12L2933.97,1636.68L2910.23,1625.15L2896.01,1611.33L2880.71,1604.43L2879.58,1586.61L2873.26,1572.41L2864.43,1546.41L2861.51,1510.08L2856.99,1505.54L2856.28,1489.09L2850.66,1475.01L2848.98,1410.09L2845.02,1408.93L2839.57,1409.83L2836.89,1412.35L2831.33,1501.31L2813.53,1492.1L2812.31,1482.09L2803.12,1478.22L2795.95,1485.04L2795.55,1463.74L2791.99,1458.34L2786.97,1462.16L2788.23,1407.17L2775.68,1387.36Z" style="fill:rgb(50,38,56);"/>
                <clipPath id="_clip1">
                    <path d="M2775.68,1387.36L2746.62,1383.15L2743.45,1379.43L2722.11,1377.45L2699.48,1379.25L2689.78,1378.57L2671.43,1384.92L2658.04,1384.21L2644.53,1378.5L2629.08,1374.57L2598.9,1377.07L2572.96,1391.05L2572.58,1419.43L2564.84,1428.5L2558.27,1433.66L2560.71,1548.25L2554.14,1557.03L2555.69,1581.99L2484,1619.17L2480.36,1628.97L2419.85,1662.17L2419.2,1628.01L2411.54,1624.01L2402.87,1626.82L2401.69,1639.65L2389.24,1646.72L2383.81,1641.86L2377.04,1647.69L2372.92,1676.35L2347.25,1682.95L2345.31,1689.08L2305.48,1706.93L2289.19,1707.7L2272.62,1708.94L2266.31,1721.62L2178.53,1770.49L2520.93,1822.73L3189.03,1788.84L3084.74,1714.39L3038.18,1700.68L3021.52,1696.74L3017.82,1691.68L3005.17,1683.95L2954.41,1655.5L2934.61,1646.12L2933.97,1636.68L2910.23,1625.15L2896.01,1611.33L2880.71,1604.43L2879.58,1586.61L2873.26,1572.41L2864.43,1546.41L2861.51,1510.08L2856.99,1505.54L2856.28,1489.09L2850.66,1475.01L2848.98,1410.09L2845.02,1408.93L2839.57,1409.83L2836.89,1412.35L2831.33,1501.31L2813.53,1492.1L2812.31,1482.09L2803.12,1478.22L2795.95,1485.04L2795.55,1463.74L2791.99,1458.34L2786.97,1462.16L2788.23,1407.17L2775.68,1387.36Z"/>
                </clipPath>
                <g clip-path="url(#_clip1)">
                    <path d="M2603.57,1369.34L2610.06,1389.17L2614.11,1410.01L2611.04,1426.3L2607.83,1445.46L2604.16,1441.28L2604.1,1450.04L2608.32,1466.02L2605.92,1487.12L2607.34,1502.74L2613.81,1507.73L2623,1490.13L2635,1471.19L2639.18,1461.8L2636.72,1451.97L2627.4,1444.55L2640.8,1427.19L2644.51,1414.29L2641.38,1400.8L2642.25,1383.3L2647.36,1374.57L2603.57,1369.34Z" style="fill:rgb(42,29,49);"/>
                    <path d="M2662.1,1424.21L2665.91,1438.53L2666.55,1459.97L2667.21,1484.11L2670.39,1507.73L2665.03,1523.08L2657.52,1535.4L2659.35,1526.24L2655.71,1531.36L2656.07,1519.1L2654.76,1500.92L2657.71,1484.73L2658.41,1468.95L2661.6,1445.92L2659.8,1434.12L2662.1,1424.21Z" style="fill:rgb(42,29,49);"/>
                    <path d="M2634.26,1567.32L2644.1,1567.21L2643.55,1552.63L2644.85,1550.08L2644.81,1545.94L2640.49,1539.18L2640.98,1533.23L2641.15,1531.43L2643.8,1535.4L2649.94,1549.31L2649.94,1556.22L2647.74,1563.59L2650.7,1565.2L2654.76,1558.85L2654.76,1547.12L2645.54,1528.68L2645.53,1512.79L2642.8,1479.81L2643.8,1453.6L2643.93,1438.53L2638.63,1443.59L2635.64,1499.12L2632.09,1526.84L2634.8,1542.32L2634.99,1552.74L2634.26,1567.32Z" style="fill:rgb(50,38,56);"/>
                    <path d="M2577.77,1430.39L2583.45,1436.65L2581.11,1489.29L2575.6,1502.93L2575.98,1493.6L2574.35,1474.84L2569.01,1460.16L2570.23,1446.77L2574.16,1454.74L2574.09,1435.07L2577.77,1430.39" style="fill:rgb(42,29,49);"/>
                    <path d="M2723.38,1369.34L2743.63,1372.4L2750.55,1393.97L2747.94,1399.35L2750.69,1403.87L2757.07,1408.76L2759.75,1424.32L2756.65,1435.86L2761.65,1442.84L2761.46,1457.2L2759.38,1480.06L2766.26,1495.75L2777.53,1502.93L2785.59,1522.45L2787.84,1532.59L2792.39,1535.28L2793.55,1543.94L2785.2,1547.43L2785.3,1554.64L2782.89,1546.37L2785.65,1541.04L2780.15,1533.45L2779.63,1527.89L2776.92,1542.79L2777.13,1552.78L2772.15,1542.36L2767.64,1546.53L2770.51,1555.98L2765.07,1555.41L2762.68,1556.81L2757.85,1548.25L2757.35,1505.2L2749.03,1496.37L2745.46,1498.15L2745.85,1505.55L2745.62,1515.32L2740.3,1502.93L2740.87,1515.92L2744.38,1523.89L2744.38,1531.32L2741.32,1523.98L2738.73,1518.56L2736.62,1515.14L2736.26,1522.08L2740.14,1532.84L2739.92,1547.04L2738.34,1557.45L2735.32,1574.84L2729.7,1582.03L2730.43,1572.71L2731.6,1561.38L2726.39,1567.32L2724.53,1557.71L2728.73,1553.29L2727.06,1535.43L2729.4,1516.1L2733.06,1510.1L2732.26,1462.77L2723.41,1451.68L2721.15,1438.53L2723.38,1430.39L2733.02,1425.54L2728.78,1416.77L2726.72,1404.08L2733.14,1395.54L2729.76,1387.99L2719.67,1382.79L2701.22,1378.35L2717.98,1371.36L2725.05,1369.59" style="fill:rgb(42,29,49);"/>
                    <path d="M2769.71,1382.35L2777.17,1394.3L2783.29,1409.1L2783.46,1424.82L2782.38,1436.32L2783.82,1443.94L2783.69,1457.23L2784.52,1466.66L2785.65,1475.68L2786.47,1487.11L2788.13,1490.03L2793.55,1485.4L2793.55,1495.12L2786.84,1502.93L2787.14,1509.74L2788.4,1512.56L2793.55,1507.5L2793.55,1506.55L2792.65,1505.01L2794.58,1503.59L2797.04,1502.93L2797.02,1495.18L2799.37,1495.05L2799.93,1493.32L2799.87,1487.28L2798.99,1483.26L2801.07,1475.07L2807.07,1478.03L2807.72,1488.04L2807.62,1497.66L2811.24,1495.43L2814.7,1494.42L2819.18,1496.55L2815.7,1499.21L2817.58,1501.63L2822.64,1505.31L2823.32,1514.27L2821.31,1521.83L2818.05,1522.98L2814.12,1535.91L2815.22,1553.05L2815.43,1566.11L2818.94,1578.89L2816.91,1583.32L2816.99,1588.14L2821.73,1588.36L2828.41,1587.22L2836.22,1587.77L2838.28,1579.62L2837.08,1550.08L2830.82,1500.01L2811.88,1462.63L2792.3,1385.28L2769.71,1382.35" style="fill:rgb(42,29,49);"/>
                    <path d="M2853.92,1406.89L2846.77,1408.46L2844.76,1413.26L2843,1417.24L2845.39,1420.63L2845.64,1431.18L2845.77,1444.15L2846.52,1449.72L2847.67,1458.06L2845.61,1462.86L2846.64,1477.26L2846.2,1492.11L2849.38,1506.34L2850.88,1517.38L2851.37,1529.17L2853.52,1542.89L2853.03,1561.88L2858.74,1572.24L2860.29,1578.93L2862.41,1579.1L2863.76,1571.05L2866.67,1577.56L2867.55,1583.52L2870.07,1593.18L2870.72,1602.92L2878.16,1613.49L2880.76,1616.11L2877.88,1617.46L2872.12,1617.39L2859.26,1609.54L2853.03,1605.35L2846.35,1594.22L2836.28,1589.81L2834.12,1598.65L2838.28,1604.97L2843.66,1627.29L2844.91,1641.51L2849.9,1648.45L2852.73,1668.38L2858.95,1675.76L2865.59,1686.45L2872.17,1696.19L2886.72,1703.63L2892.08,1711.21L2903.3,1715.81L2908.73,1729.58L2929.08,1735.6L2948.5,1746.89L2965.7,1749.13L2981.65,1749.8L3003.51,1756.21L3012.73,1756.79L3023.92,1758.33L3039.23,1770.49L3060.36,1765.18L3074.51,1761.73L3080.5,1761.99L3064.55,1754.72L3051.08,1752.58L3041.15,1742.62L3029.45,1741.33L3021.48,1732.72L3009.29,1723.09L2998.6,1717.8L2987.2,1717.85L2978.34,1717.34L2977.97,1707.53L2964.8,1689.97L2947.13,1674.05L2955.2,1690.53L2945.95,1689.03L2938.65,1687.86L2938.73,1695.32L2942.3,1701.75L2936.12,1701.84L2928.79,1697.27L2920.38,1685.73L2914.67,1674.17L2915.08,1667.6L2908.13,1663.21L2899.48,1652.31L2900.6,1648.52L2906.12,1650.36L2908.72,1657.17L2919.45,1660.7L2920.72,1668.45L2925.75,1672.33L2929.58,1683.02L2935.66,1681.56L2932.66,1672.53L2934.79,1667.52L2947.25,1667.36L2954.55,1670.28L2962.59,1679.94L2970.18,1690.16L2979.05,1692.48L2988.96,1696.21L2987.37,1701.45L2993.89,1703.35L2998.14,1710.45L3001.82,1710.32L3005,1714.64L3006.86,1709.43L3016.78,1710.71L3023.85,1718.35L3033.2,1723.42L3041.37,1729.59L3053.7,1733.62L3070.28,1731.89L3078.55,1737.79L3088.83,1745.02L3098.07,1751.77L3109.98,1759.65L3122.5,1763.89L3131.15,1763.95L3113.23,1750.37L3110.47,1747.5L3121.4,1750.01L3128.66,1748.95L3140.64,1755.23L3146.51,1751.33L3129.63,1742.07L3104.18,1696.36L3019.05,1598.65L2919.94,1430.39L2853.92,1406.89Z" style="fill:rgb(42,29,49);"/>
                    <path d="M2410.88,1619.77L2414.21,1629.87L2415.6,1640.5L2415.76,1654.79L2416.23,1663.76L2421.4,1661.92L2426.74,1652.16L2431.74,1643.88L2424.52,1616.66L2410.88,1619.77" style="fill:rgb(42,29,49);"/>
                    <path d="M2381.1,1640.21L2385.89,1649.93L2388.71,1663.76L2389.67,1676.72L2392.16,1671.66L2389.89,1647.17L2383.08,1638.71" style="fill:rgb(42,29,49);"/>
                </g>
            </g>
        </g>
    </g>
</svg>
