<?xml version="1.0" encoding="UTF-8" standalone="no"?>
<!DOCTYPE svg PUBLIC "-//W3C//DTD SVG 1.1//EN" "http://www.w3.org/Graphics/SVG/1.1/DTD/svg11.dtd">
<svg width="100%" height="100%" viewBox="0 0 4147 1871" version="1.1" xmlns="http://www.w3.org/2000/svg" xmlns:xlink="http://www.w3.org/1999/xlink" xml:space="preserve" xmlns:serif="http://www.serif.com/" style="fill-rule:evenodd;clip-rule:evenodd;stroke-linejoin:round;stroke-miterlimit:1.41421;">
    <g transform="matrix(1,0,0,1,-2349.2,-759.28)">
        <g transform="matrix(6.45239,0,0,4.17975,-6764.53,-1550.47)">
            <g id="distant-mountains" serif:id="distant mountains" transform="matrix(0.154981,0,0,0.239249,1461.15,370.949)">
                <path d="M3270.79,1663.76L3148.74,1616.66L3083.06,1598.65L3038.04,1622.21L3011.88,1622.66L2976.78,1622.66L2895.24,1657.71L2873.49,1657.71L2479.71,1689.98L2381.1,1689.98L2354.95,1689.98L2323.16,1676.72L2264.11,1657.71L2240.97,1657.71L2195.56,1657.71L2176.26,1657.71L2097.19,1638.71L2087.51,1612.61L2048.48,1598.65L1974.21,1598.65L1953.64,1544.27L1913.01,1447.89L1864.12,1409.64L1854.01,1327.45L1712.71,1301.06L1553.24,1399.43L1462.47,1437.28L1390.52,1638.71L1219.73,1676.72L1033.26,1543.24L892.267,1412.09L647.644,1353.64L581.264,1397.36L480.612,1398.27L444.831,1322.49L385.469,1267.61L345.107,1172.55L268.324,1098.49L122.579,1041.06L46.63,1037.28L-47.498,759.28L-314.171,2630.2L3832.75,2410.63L3270.79,1663.76Z" style="fill:rgb(36,27,42);"/>
                <clipPath id="_clip1">
                    <path d="M3270.79,1663.76L3148.74,1616.66L3083.06,1598.65L3038.04,1622.21L3011.88,1622.66L2976.78,1622.66L2895.24,1657.71L2873.49,1657.71L2479.71,1689.98L2381.1,1689.98L2354.95,1689.98L2323.16,1676.72L2264.11,1657.71L2240.97,1657.71L2195.56,1657.71L2176.26,1657.71L2097.19,1638.71L2087.51,1612.61L2048.48,1598.65L1974.21,1598.65L1953.64,1544.27L1913.01,1447.89L1864.12,1409.64L1854.01,1327.45L1712.71,1301.06L1553.24,1399.43L1462.47,1437.28L1390.52,1638.71L1219.73,1676.72L1033.26,1543.24L892.267,1412.09L647.644,1353.64L581.264,1397.36L480.612,1398.27L444.831,1322.49L385.469,1267.61L345.107,1172.55L268.324,1098.49L122.579,1041.06L46.63,1037.28L-47.498,759.28L-314.171,2630.2L3832.75,2410.63L3270.79,1663.76Z"/>
                </clipPath>
                <g clip-path="url(#_clip1)">
                    <path d="M1855.88,1322.51L1781.8,1400.1L1873.17,1414.14L1922.1,1434.39L1879.43,1493.09L1894.54,1599.98L1982.83,1604.25L2072.2,1621.99L2094.64,1652.38L2145.97,1645.33L2096.92,1496.87L1855.88,1322.51Z" style="fill:rgb(28,22,31);"/>
                    <path d="M234.087,1046.84L272.482,1199.42L323.742,1248.09L345.311,1302.86L363.029,1336.28L401.71,1351.22L404.978,1399.52L514.266,1405.58L422.113,1044.45L234.087,1046.84Z" style="fill:rgb(28,22,31);"/>
                    <path d="M654.383,1355.87L704.498,1422.23L987.759,1405.58L764.188,1337.13L654.383,1355.87Z" style="fill:rgb(28,22,31);"/>
                </g>
            </g>
        </g>
    </g>
</svg>
