<?xml version="1.0" encoding="UTF-8" standalone="no"?>
<!DOCTYPE svg PUBLIC "-//W3C//DTD SVG 1.1//EN" "http://www.w3.org/Graphics/SVG/1.1/DTD/svg11.dtd">
<svg width="100%" height="100%" viewBox="0 0 1853 707" version="1.1" xmlns="http://www.w3.org/2000/svg" xmlns:xlink="http://www.w3.org/1999/xlink" xml:space="preserve" xmlns:serif="http://www.serif.com/" style="fill-rule:evenodd;clip-rule:evenodd;stroke-linejoin:round;stroke-miterlimit:1.41421;">
    <g transform="matrix(1,0,0,1,-2574.6,-1464.19)">
        <g transform="matrix(6.45239,0,0,4.17975,-6764.53,-1550.47)">
            <g id="foreground-cliff" serif:id="foreground cliff" transform="matrix(0.154981,0,0,0.239249,1460.34,354.289)">
                <path d="M1768.57,1673.08L1746.37,1622.1L1602.36,1595.05L1435.47,1587.68L1374.19,1555.63L1288.46,1537.33L957.636,1533.82L600.997,1544.84L-83.587,1537.79L-76.38,2222.4L1611.3,2240.31L1495.64,2182.37L1493.12,2122.21L1570.78,2069.84L1586.57,2036.14L1589.96,1930.08L1637.97,1868.73L1699.76,1842L1705.11,1817.91L1721.41,1784L1713.86,1756.61L1768.57,1673.08Z" style="fill:rgb(96,84,103);"/>
                <clipPath id="_clip1">
                    <path d="M1768.57,1673.08L1746.37,1622.1L1602.36,1595.05L1435.47,1587.68L1374.19,1555.63L1288.46,1537.33L957.636,1533.82L600.997,1544.84L-83.587,1537.79L-76.38,2222.4L1611.3,2240.31L1495.64,2182.37L1493.12,2122.21L1570.78,2069.84L1586.57,2036.14L1589.96,1930.08L1637.97,1868.73L1699.76,1842L1705.11,1817.91L1721.41,1784L1713.86,1756.61L1768.57,1673.08Z"/>
                </clipPath>
                <g clip-path="url(#_clip1)">
                    <path d="M1644.79,1766.13L1643.08,1794.39L1640.36,1820.99L1677.38,1816.86L1719.92,1782.6L1702.11,1775.85L1699.2,1761.72L1726.63,1749.88L1779.41,1656.17L1675.66,1690.69L1582.05,1655.25L1523.44,1662.78L1526.86,1673.22L1506.75,1675.81L1498.58,1684.26L1549.87,1745.19L1545.12,1781.39L1507.08,1793.04L1516.64,1808.93L1501.95,1822.93L1504.46,1837.65L1569.4,1812.93L1615.93,1817.5L1626.3,1787.04L1612.76,1776.76L1644.79,1766.13Z" style="fill:rgb(79,67,86);"/>
                    <clipPath id="_clip2">
                        <path d="M1644.79,1766.13L1643.08,1794.39L1640.36,1820.99L1677.38,1816.86L1719.92,1782.6L1702.11,1775.85L1699.2,1761.72L1726.63,1749.88L1779.41,1656.17L1675.66,1690.69L1582.05,1655.25L1523.44,1662.78L1526.86,1673.22L1506.75,1675.81L1498.58,1684.26L1549.87,1745.19L1545.12,1781.39L1507.08,1793.04L1516.64,1808.93L1501.95,1822.93L1504.46,1837.65L1569.4,1812.93L1615.93,1817.5L1626.3,1787.04L1612.76,1776.76L1644.79,1766.13Z"/>
                    </clipPath>
                    <g clip-path="url(#_clip2)">
                        <path d="M1646.43,1717.5L1606.14,1716.03L1576.29,1722.46L1564.98,1740.65L1562.95,1768.12L1544.33,1781.08L1541.47,1740.23L1519.12,1715.36L1575.31,1710.08L1609.62,1700.98L1637.82,1706.55L1646.43,1717.5Z" style="fill:rgb(65,52,72);fill-opacity:0.623753;"/>
                    </g>
                    <path d="M1345.66,1947.73L1306.51,1935.15L1235.44,1967.05L1255.11,2003.62L1253.36,2021.18L1208.59,2032.52L1201.58,2073.24L1291.4,2068.98L1296.53,2099.73L1341.29,2083.19L1353.24,2097.45L1376.74,2068.65L1395.95,2098.79L1428.25,2093.75L1447.61,2054.6L1427.79,2030.63L1366.62,2048.82L1364.42,2010.77L1366.14,1980.56L1405.74,2005.05L1430.29,2007.72L1437.62,1976.51L1473.12,1994.48L1506.9,1975.32L1521.82,1986.11L1537.42,2031.41L1510.66,2043.55L1517.6,2053.42L1571.16,2067.84L1506.66,2088.25L1436.24,2111.11L1433.1,2131.63L1460.69,2240.9L1267.74,2284.83L899.763,2239.77L975.972,2122.52L990.399,2085.74L1017.61,2060.47L1024.8,2019.15L1051.44,2006.87L1034.87,1957.18L1010.73,1938.15L1013.09,1919.29L975.422,1946.19L941.783,1943.04L895.322,1945.88L864.579,1935.86L806.658,1935.34L744.871,1991.1L691.826,2001.79L667.596,1992.68L636.078,2008.5L613.466,2012.89L591.696,2002.57L566.392,2006.85L511.898,1982.28L445.093,2010.97L415.523,2009.75L407.264,2024.9L380.655,2028.5L361.396,2044.41L395.861,2075.88L434.276,2096.84L391.322,2128.52L447.717,2155.7L473.9,2246.77L-52.537,2319.73L-10.471,1680.32L107.918,1693.38L217.069,1697.6L306.481,1691.2L371.111,1670.6L434.099,1695.68L511.44,1708.58L558.984,1711.59L550.753,1718.48L440.879,1735.38L488.801,1796.13L552.89,1786.47L623.691,1803.95L677.821,1806.26L739.446,1823.01L758.509,1803.73L772.922,1810.11L840.233,1826.46L838.049,1803.79L860.508,1825.05L894.961,1822.67L916.83,1801.7L938.974,1813.48L971.008,1811.59L985.123,1792.31L1010.28,1797.7L1016.94,1828.57L1043.37,1837.83L1068.3,1858.88L1112.24,1842.26L1136.86,1797.18L1138.46,1735.23L1151.65,1714.1L1169.85,1684.47L1192.26,1683.97L1192.22,1627.33L1145.49,1587.85L1173.59,1593.06L1210.78,1624.85L1230.09,1649.95L1268.99,1685.21L1288.48,1675.96L1336.17,1673.51L1396.33,1667.44L1442.49,1656.66L1492.95,1661.62L1455.73,1683.43L1418.75,1689.92L1396.37,1681.05L1353.43,1697.2L1365.18,1711.16L1307.66,1710.67L1275.65,1719.07L1271.73,1744.29L1220.22,1764.82L1201.12,1753.07L1192.6,1762.91L1201.83,1778.89L1234.85,1783.97L1257.68,1808.12L1333.03,1802.99L1314,1818.06L1321.61,1835.4L1282.53,1848.26L1325.65,1851.79L1397.67,1853.18L1419.99,1838.15L1448.46,1829.39L1427.23,1854.73L1470.35,1860.2L1531.45,1852.35L1615.58,1855.91L1704.56,1827.92L1591.28,1928.77L1572.13,1911.58L1553.03,1910.78L1540.37,1921.78L1526.01,1915.38L1512.77,1923.59L1485.1,1915.69L1471.28,1924.26L1446.42,1897.23L1426.49,1911.29L1410.26,1894.54L1345.66,1947.73Z" style="fill:rgb(79,67,86);"/>
                    <clipPath id="_clip3">
                        <path d="M1345.66,1947.73L1306.51,1935.15L1235.44,1967.05L1255.11,2003.62L1253.36,2021.18L1208.59,2032.52L1201.58,2073.24L1291.4,2068.98L1296.53,2099.73L1341.29,2083.19L1353.24,2097.45L1376.74,2068.65L1395.95,2098.79L1428.25,2093.75L1447.61,2054.6L1427.79,2030.63L1366.62,2048.82L1364.42,2010.77L1366.14,1980.56L1405.74,2005.05L1430.29,2007.72L1437.62,1976.51L1473.12,1994.48L1506.9,1975.32L1521.82,1986.11L1537.42,2031.41L1510.66,2043.55L1517.6,2053.42L1571.16,2067.84L1506.66,2088.25L1436.24,2111.11L1433.1,2131.63L1460.69,2240.9L1267.74,2284.83L899.763,2239.77L975.972,2122.52L990.399,2085.74L1017.61,2060.47L1024.8,2019.15L1051.44,2006.87L1034.87,1957.18L1010.73,1938.15L1013.09,1919.29L975.422,1946.19L941.783,1943.04L895.322,1945.88L864.579,1935.86L806.658,1935.34L744.871,1991.1L691.826,2001.79L667.596,1992.68L636.078,2008.5L613.466,2012.89L591.696,2002.57L566.392,2006.85L511.898,1982.28L445.093,2010.97L415.523,2009.75L407.264,2024.9L380.655,2028.5L361.396,2044.41L395.861,2075.88L434.276,2096.84L391.322,2128.52L447.717,2155.7L473.9,2246.77L-52.537,2319.73L-10.471,1680.32L107.918,1693.38L217.069,1697.6L306.481,1691.2L371.111,1670.6L434.099,1695.68L511.44,1708.58L558.984,1711.59L550.753,1718.48L440.879,1735.38L488.801,1796.13L552.89,1786.47L623.691,1803.95L677.821,1806.26L739.446,1823.01L758.509,1803.73L772.922,1810.11L840.233,1826.46L838.049,1803.79L860.508,1825.05L894.961,1822.67L916.83,1801.7L938.974,1813.48L971.008,1811.59L985.123,1792.31L1010.28,1797.7L1016.94,1828.57L1043.37,1837.83L1068.3,1858.88L1112.24,1842.26L1136.86,1797.18L1138.46,1735.23L1151.65,1714.1L1169.85,1684.47L1192.26,1683.97L1192.22,1627.33L1145.49,1587.85L1173.59,1593.06L1210.78,1624.85L1230.09,1649.95L1268.99,1685.21L1288.48,1675.96L1336.17,1673.51L1396.33,1667.44L1442.49,1656.66L1492.95,1661.62L1455.73,1683.43L1418.75,1689.92L1396.37,1681.05L1353.43,1697.2L1365.18,1711.16L1307.66,1710.67L1275.65,1719.07L1271.73,1744.29L1220.22,1764.82L1201.12,1753.07L1192.6,1762.91L1201.83,1778.89L1234.85,1783.97L1257.68,1808.12L1333.03,1802.99L1314,1818.06L1321.61,1835.4L1282.53,1848.26L1325.65,1851.79L1397.67,1853.18L1419.99,1838.15L1448.46,1829.39L1427.23,1854.73L1470.35,1860.2L1531.45,1852.35L1615.58,1855.91L1704.56,1827.92L1591.28,1928.77L1572.13,1911.58L1553.03,1910.78L1540.37,1921.78L1526.01,1915.38L1512.77,1923.59L1485.1,1915.69L1471.28,1924.26L1446.42,1897.23L1426.49,1911.29L1410.26,1894.54L1345.66,1947.73Z"/>
                    </clipPath>
                    <g clip-path="url(#_clip3)">
                        <path d="M1012.28,1941.8L1012.97,1926.37L1031.44,1915.99L1041.3,1909.44L1053.62,1871.91L1066.26,1885.26L1064.46,1913.51L1057.66,1945.81L1072.64,1965.72L1072.64,2019.16L1057.69,2050.87L1041.61,2060.68L1041.35,2076.15L1033.74,2089.12L1016.57,2093.29L1008.68,2112.92L1014.55,2124.11L1007.91,2140.32L1026.59,2160.3L973.445,2252.21L889.751,2250.66L936.03,2125.05L1012.28,1941.8Z" style="fill:rgb(65,52,72);"/>
                    </g>
                    <path d="M-4.695,1858.1L45.775,1862.76L75.213,1854.25L110.273,1863.49L154.564,1858.15L166.512,1874.6L290.436,1885.25L381.814,1860.88L389.143,1870.08L361.499,1884.26L334.928,1895.25L304.979,1926.02L193.203,1922.3L119.657,1952.9L63.16,2063.84L17.166,2249.01L-64.108,2255.93L-4.695,1858.1Z" style="fill:rgb(65,52,72);"/>
                    <path d="M902.023,1853.89L840.742,1857.41L755.785,1863.7L611.35,1865.19L563.16,1863.65L522.309,1874.17L536.589,1888.55L579.855,1895.84L631.786,1876.3L656.138,1871.17L672.646,1878.53L723.791,1891.22L752.278,1873.9L818.584,1874.26L828.377,1883.82L827.681,1896.97L846.857,1900.05L867.522,1879.62L884.594,1868.12L902.023,1853.89Z" style="fill:rgb(65,52,72);"/>
                    <path d="M1271.71,2126.63L1306.05,2122.1L1342.17,2110.38L1342.88,2124.54L1336.31,2139.73L1327.07,2140.57L1326.75,2154.88L1310.89,2166.58L1277.88,2181.47L1232.41,2177.6L1270.53,2159.13L1263.89,2149.81L1271.71,2126.63Z" style="fill:rgb(65,52,72);"/>
                </g>
            </g>
        </g>
    </g>
</svg>
