<?xml version="1.0" encoding="UTF-8" standalone="no"?>
<!DOCTYPE svg PUBLIC "-//W3C//DTD SVG 1.1//EN" "http://www.w3.org/Graphics/SVG/1.1/DTD/svg11.dtd">
<svg width="100%" height="100%" viewBox="0 0 2871 330" version="1.1" xmlns="http://www.w3.org/2000/svg" xmlns:xlink="http://www.w3.org/1999/xlink" xml:space="preserve" xmlns:serif="http://www.serif.com/" style="fill-rule:evenodd;clip-rule:evenodd;stroke-linejoin:round;stroke-miterlimit:1.41421;">
    <g transform="matrix(1,0,0,1,-3104.24,-1843.58)">
        <g transform="matrix(6.45239,0,0,4.17975,-6764.53,-1550.47)">
            <g transform="matrix(1,0,0,1,0,-4.74425)">
                <g transform="matrix(-0.154981,0,0,0.239249,2196.05,326.161)">
                    <path d="M1499.72,2147.98L1728.56,2125.86L1789.84,2108.97L1874.64,2108.97L1950.25,2101.98L2055.19,2101.98L2162.96,2113.56L2271.28,2087.6L2491.39,2050.62L2616.12,2086.08L2739.18,2059.41L2889.58,2052.56L2962.05,2066.88L3005.04,2066.88L3140.38,2072.68L3219.79,2081L4267.16,2096.73L4301.01,2316.93L2550.16,2355.55L1430.01,2380.27L1499.72,2147.98Z" style="fill:rgb(65,52,72);"/>
                    <clipPath id="_clip1">
                        <path d="M1499.72,2147.98L1728.56,2125.86L1789.84,2108.97L1874.64,2108.97L1950.25,2101.98L2055.19,2101.98L2162.96,2113.56L2271.28,2087.6L2491.39,2050.62L2616.12,2086.08L2739.18,2059.41L2889.58,2052.56L2962.05,2066.88L3005.04,2066.88L3140.38,2072.68L3219.79,2081L4267.16,2096.73L4301.01,2316.93L2550.16,2355.55L1430.01,2380.27L1499.72,2147.98Z"/>
                    </clipPath>
                    <g clip-path="url(#_clip1)">
                        <g transform="matrix(-9.23405,0,0,5.98166,19785.1,-2891.27)">
                            <g transform="matrix(0.184037,0,0,0.284103,907.518,314.961)">
                                <path d="M5272,1827.93L5274,1834L5281,1840L5293,1842L5306,1842L5316,1840L5324,1837L5332,1832.89L5334,1829L5335,1825L5334,1822L5331,1820L5323,1816.11L5318,1816.11L5312,1815L5298,1813L5292,1814L5285,1817L5279,1820L5275,1822.97L5272,1827.93" style="fill:rgb(255,121,0);fill-opacity:0.25;"/>
                            </g>
                            <g transform="matrix(0.234878,0,0,0.362588,637.882,171.53)">
                                <path d="M5272,1827.93L5274,1834L5281,1840L5293,1842L5306,1842L5316,1840L5324,1837L5332,1832.89L5334,1829L5335,1825L5334,1822L5331,1820L5323,1816.11L5318,1816.11L5312,1815L5298,1813L5292,1814L5285,1817L5279,1820L5275,1822.97L5272,1827.93" style="fill:rgb(255,121,0);fill-opacity:0.147969;"/>
                            </g>
                            <g transform="matrix(0.297035,0,0,0.458542,308.23,-3.82628)">
                                <path d="M5272,1827.93L5274,1834L5281,1840L5293,1842L5306,1842L5316,1840L5324,1837L5332,1832.89L5334,1829L5335,1825L5334,1822L5331,1820L5323,1816.11L5318,1816.11L5312,1815L5298,1813L5292,1814L5285,1817L5279,1820L5275,1822.97L5272,1827.93" style="fill:rgb(255,121,0);fill-opacity:0.147969;"/>
                            </g>
                            <g transform="matrix(0.404469,0,0,0.62439,-261.544,-306.913)">
                                <path d="M5272,1827.93L5274,1834L5281,1840L5293,1842L5306,1842L5316,1840L5324,1837L5332,1832.89L5334,1829L5335,1825L5334,1822L5331,1820L5323,1816.11L5318,1816.11L5312,1815L5298,1813L5292,1814L5285,1817L5279,1820L5275,1822.97L5272,1827.93" style="fill:rgb(255,121,0);fill-opacity:0.0597686;"/>
                            </g>
                            <g transform="matrix(0.280898,0,0,0.43363,394.007,42.1479)">
                                <path d="M5295,1825L5296,1824L5297,1823.5L5297,1822L5298,1822L5299,1821L5300,1820L5301,1820L5302,1819L5303,1819L5304,1820L5306,1820L5307,1821L5307,1822L5308,1822L5310,1824L5309,1826L5306,1827L5303,1828L5299,1828L5296,1828L5294,1826L5295,1825" style="fill:rgb(218,104,0);"/>
                                <clipPath id="_clip2">
                                    <path d="M5295,1825L5296,1824L5297,1823.5L5297,1822L5298,1822L5299,1821L5300,1820L5301,1820L5302,1819L5303,1819L5304,1820L5306,1820L5307,1821L5307,1822L5308,1822L5310,1824L5309,1826L5306,1827L5303,1828L5299,1828L5296,1828L5294,1826L5295,1825"/>
                                </clipPath>
                                <g clip-path="url(#_clip2)">
                                    <g>
                                        <path d="M5296,1828L5296,1826L5297,1824.75L5298,1825L5299,1823.5L5299,1823L5300,1822L5301,1823L5301,1822L5303,1821L5304,1821L5305,1822L5306,1822L5307,1823L5308,1823L5308,1824L5309,1825L5309,1825.5L5308,1827L5306,1828L5303,1828L5299,1828L5296,1828" style="fill:rgb(230,191,99);"/>
                                        <clipPath id="_clip3">
                                            <path d="M5296,1828L5296,1826L5297,1824.75L5298,1825L5299,1823.5L5299,1823L5300,1822L5301,1823L5301,1822L5303,1821L5304,1821L5305,1822L5306,1822L5307,1823L5308,1823L5308,1824L5309,1825L5309,1825.5L5308,1827L5306,1828L5303,1828L5299,1828L5296,1828"/>
                                        </clipPath>
                                        <g clip-path="url(#_clip3)">
                                            <g id="_-Curve-" serif:id="(Curve)" transform="matrix(-0.692308,0,0,0.692308,8973.46,562.808)">
                                                <path d="M5296,1828L5296,1826L5297,1824.75L5298,1825L5299,1823.5L5299,1823L5300,1822L5301,1823L5301,1822L5303,1821L5304,1821L5305,1822L5306,1822L5307,1823L5308,1823L5308,1824L5309,1825L5309,1825.5L5308,1827L5306,1828L5303,1828L5299,1828L5296,1828" style="fill:rgb(255,245,107);"/>
                                            </g>
                                        </g>
                                    </g>
                                </g>
                            </g>
                            <g transform="matrix(1.81246,0,0,1.81246,-1506.14,-630.183)">
                                <g transform="matrix(0.154981,0,0,0.239249,1048.38,370.949)">
                                    <path d="M5297,1829L5298,1830L5299.16,1830L5301,1829L5301,1828L5300,1827L5299,1827L5297,1828L5297,1829Z" style="fill:rgb(82,40,41);"/>
                                    <clipPath id="_clip4">
                                        <path d="M5297,1829L5298,1830L5299.16,1830L5301,1829L5301,1828L5300,1827L5299,1827L5297,1828L5297,1829Z"/>
                                    </clipPath>
                                    <g clip-path="url(#_clip4)">
                                        <g transform="matrix(1,0,0,1,-0.165748,0.339982)">
                                            <path d="M5297,1829L5298,1830L5299.16,1830L5301,1829L5301,1828L5300,1827L5299,1827L5297,1828L5297,1829Z" style="fill:rgb(50,38,56);"/>
                                        </g>
                                    </g>
                                </g>
                                <g transform="matrix(0.154981,0,0,0.239249,1049.46,370.709)">
                                    <path d="M5297,1829L5298,1830L5299.16,1830L5301,1829L5301,1828L5300,1827L5299,1827L5297,1828L5297,1829Z" style="fill:rgb(82,40,41);"/>
                                    <clipPath id="_clip5">
                                        <path d="M5297,1829L5298,1830L5299.16,1830L5301,1829L5301,1828L5300,1827L5299,1827L5297,1828L5297,1829Z"/>
                                    </clipPath>
                                    <g clip-path="url(#_clip5)">
                                        <g transform="matrix(1,0,0,1,0.243908,0.278546)">
                                            <path d="M5297,1829L5298,1830L5299.16,1830L5301,1829L5301,1828L5300,1827L5299,1827L5297,1828L5297,1829Z" style="fill:rgb(50,38,56);"/>
                                        </g>
                                    </g>
                                </g>
                                <g transform="matrix(0.116236,0,0,0.199374,1255.24,443.262)">
                                    <path d="M5297,1829L5298,1830L5299.16,1830L5301,1829L5301,1828L5300,1827L5299,1827L5297,1828L5297,1829Z" style="fill:rgb(82,40,41);"/>
                                    <clipPath id="_clip6">
                                        <path d="M5297,1829L5298,1830L5299.16,1830L5301,1829L5301,1828L5300,1827L5299,1827L5297,1828L5297,1829Z"/>
                                    </clipPath>
                                    <g clip-path="url(#_clip6)">
                                        <g transform="matrix(1,0,0,1,0.245917,0.262345)">
                                            <path d="M5297,1829L5298,1830L5299.16,1830L5301,1829L5301,1828L5300,1827L5299,1827L5297,1828L5297,1829Z" style="fill:rgb(50,38,56);"/>
                                        </g>
                                    </g>
                                </g>
                                <g transform="matrix(0.154981,0,0,0.239249,1048.84,370.829)">
                                    <path d="M5297,1829L5298,1830L5299.16,1830L5300,1829L5300,1828L5299,1827L5298,1827L5297,1828L5297,1829Z" style="fill:rgb(82,40,41);"/>
                                    <clipPath id="_clip7">
                                        <path d="M5297,1829L5298,1830L5299.16,1830L5300,1829L5300,1828L5299,1827L5298,1827L5297,1828L5297,1829Z"/>
                                    </clipPath>
                                    <g clip-path="url(#_clip7)">
                                        <g transform="matrix(1,0,0,1,0.0175673,0.222321)">
                                            <path d="M5297,1829L5298,1830L5299.16,1830L5300,1829L5300,1828L5299,1827L5298,1827L5297,1828L5297,1829Z" style="fill:rgb(50,38,56);"/>
                                        </g>
                                    </g>
                                </g>
                                <g transform="matrix(0.154981,0,0,0.239249,1049.15,370.949)">
                                    <path d="M5297,1829L5298,1830L5299.16,1830L5300,1829L5300,1828L5299,1827L5298,1827L5297,1828L5297,1829Z" style="fill:rgb(82,40,41);"/>
                                    <clipPath id="_clip8">
                                        <path d="M5297,1829L5298,1830L5299.16,1830L5300,1829L5300,1828L5299,1827L5298,1827L5297,1828L5297,1829Z"/>
                                    </clipPath>
                                    <g clip-path="url(#_clip8)">
                                        <g transform="matrix(1,0,0,1,0.183861,0.250756)">
                                            <path d="M5297,1829L5298,1830L5299.16,1830L5300,1829L5300,1828L5299,1827L5298,1827L5297,1828L5297,1829Z" style="fill:rgb(50,38,56);"/>
                                        </g>
                                    </g>
                                </g>
                                <g transform="matrix(0.103321,0,0,0.159499,1321.3,516.053)">
                                    <path d="M5298,1829L5299.16,1830L5301,1829L5301,1828L5300,1827L5299,1827L5298,1828L5298,1829Z" style="fill:rgb(82,40,41);"/>
                                    <clipPath id="_clip9">
                                        <path d="M5298,1829L5299.16,1830L5301,1829L5301,1828L5300,1827L5299,1827L5298,1828L5298,1829Z"/>
                                    </clipPath>
                                    <g clip-path="url(#_clip9)">
                                        <g transform="matrix(1,0,0,1,-0.25093,0.158404)">
                                            <path d="M5298,1829L5299.16,1830L5301,1829L5301,1828L5300,1827L5299,1827L5298,1828L5298,1829Z" style="fill:rgb(50,38,56);"/>
                                        </g>
                                    </g>
                                </g>
                                <g transform="matrix(0.103321,0,0,0.159499,1323.78,515.814)">
                                    <path d="M5298,1829L5299.16,1830L5301,1829L5301,1828L5300,1827L5299,1827L5298,1828L5298,1829Z" style="fill:rgb(82,40,41);"/>
                                    <clipPath id="_clip10">
                                        <path d="M5298,1829L5299.16,1830L5301,1829L5301,1828L5300,1827L5299,1827L5298,1828L5298,1829Z"/>
                                    </clipPath>
                                    <g clip-path="url(#_clip10)">
                                        <g transform="matrix(1,0,0,1,0.375,0.375)">
                                            <path d="M5298,1829L5299.16,1830L5301,1829L5301,1828L5300,1827L5299,1827L5298,1828L5298,1829Z" style="fill:rgb(50,38,56);"/>
                                        </g>
                                    </g>
                                </g>
                                <g transform="matrix(0.154981,0,0,0.239249,1047.76,370.949)">
                                    <path d="M5298,1829L5299.16,1830L5301,1829L5301,1828L5300,1827L5299,1827L5298,1828L5298,1829Z" style="fill:rgb(82,40,41);"/>
                                    <clipPath id="_clip11">
                                        <path d="M5298,1829L5299.16,1830L5301,1829L5301,1828L5300,1827L5299,1827L5298,1828L5298,1829Z"/>
                                    </clipPath>
                                    <g clip-path="url(#_clip11)">
                                        <g transform="matrix(1,0,0,1,-0.177658,0.189717)">
                                            <path d="M5298,1829L5299.16,1830L5301,1829L5301,1828L5300,1827L5299,1827L5298,1828L5298,1829Z" style="fill:rgb(50,38,56);"/>
                                        </g>
                                    </g>
                                </g>
                                <g transform="matrix(0.154981,0,0,0.239249,1047.45,370.59)">
                                    <path d="M5298,1829L5299.16,1830L5301,1829L5301,1828L5300,1827L5299,1827L5298,1828L5298,1829Z" style="fill:rgb(82,40,41);"/>
                                    <clipPath id="_clip12">
                                        <path d="M5298,1829L5299.16,1830L5301,1829L5301,1828L5300,1827L5299,1827L5298,1828L5298,1829Z"/>
                                    </clipPath>
                                    <g clip-path="url(#_clip12)">
                                        <g transform="matrix(1,0,0,1,-0.168775,0.104411)">
                                            <path d="M5298,1829L5299.16,1830L5301,1829L5301,1828L5300,1827L5299,1827L5298,1828L5298,1829Z" style="fill:rgb(50,38,56);"/>
                                        </g>
                                    </g>
                                </g>
                            </g>
                        </g>
                    </g>
                </g>
                <g transform="matrix(-0.068985,-0.000155272,-0.000100582,0.106494,1901.55,612.858)">
                    <path d="M1915.17,1983.65C1922.25,1983.65 1930.19,1985.43 1933.38,1990.68C1933.84,1991.43 1934.71,1986.75 1934.89,1986.47C1935.1,1986.13 1934.93,1992.45 1935.17,1992.77C1935.29,1992.94 1935.41,1993.12 1935.53,1993.29C1936.45,1994.67 1937.57,1987.81 1937.67,1987.57C1937.91,1986.99 1938.01,1996.63 1938.32,1997.16C1939.93,1999.91 1940.83,2002.73 1940.83,2005.26C1940.83,2008.6 1941.88,2014.52 1953.57,2017.94C1944.88,2017.63 1923.71,2021.44 1914.7,2021.44C1905.99,2021.44 1890.61,2019.61 1878.29,2019.75C1874.19,2019.8 1891.62,2012.63 1888.57,2005.26C1887.5,2002.68 1888.74,2000.04 1891.06,1997.68C1891.32,1997.42 1891.74,1988.01 1891.97,1988.31C1892.04,1988.4 1892.29,1996.66 1892.73,1996.18C1892.93,1995.96 1893.15,1995.75 1893.38,1995.55C1893.59,1995.37 1893.79,1989.22 1893.8,1989.5C1893.8,1989.67 1894.28,1995.01 1894.65,1994.61C1894.73,1994.52 1894.86,1994.48 1894.96,1994.42C1895.26,1994.23 1895.75,1986.63 1895.73,1986.99C1895.71,1987.32 1896.21,1993.93 1896.66,1993.48C1897.08,1993.05 1897.74,1992.94 1898.26,1992.68C1902.75,1990.42 1908.95,1983.65 1915.17,1983.65Z" style="fill:rgb(50,38,56);"/>
                    <g transform="matrix(0.355973,0,0,0.355973,1189.61,1302.29)">
                        <path d="M1915.17,1983.65C1922.25,1983.65 1930.19,1985.43 1933.38,1990.68C1933.84,1991.43 1934.93,1992.45 1935.17,1992.77C1935.29,1992.94 1935.41,1993.12 1935.53,1993.29C1936.45,1994.67 1938.01,1996.63 1938.32,1997.16C1939.93,1999.91 1940.83,2002.73 1940.83,2005.26C1940.83,2008.6 1941.88,2014.52 1953.57,2017.94C1944.88,2017.63 1923.71,2021.44 1914.7,2021.44C1905.99,2021.44 1890.61,2019.61 1878.29,2019.75C1874.19,2019.8 1891.62,2012.63 1888.57,2005.26C1887.5,2002.68 1888.74,2000.04 1891.06,1997.68C1891.32,1997.42 1892.29,1996.66 1892.73,1996.18C1892.93,1995.96 1893.15,1995.75 1893.38,1995.55C1893.59,1995.37 1893.79,1989.22 1893.8,1989.5C1893.8,1989.67 1894.28,1995.01 1894.65,1994.61C1894.73,1994.52 1894.86,1994.48 1894.96,1994.42C1895.26,1994.23 1895.75,1986.63 1895.73,1986.99C1895.71,1987.32 1896.21,1993.93 1896.66,1993.48C1897.08,1993.05 1897.74,1992.94 1898.26,1992.68C1902.75,1990.42 1908.95,1983.65 1915.17,1983.65Z" style="fill:rgb(50,38,56);"/>
                    </g>
                    <g transform="matrix(0.355973,0,0,0.355973,878.813,1369.67)">
                        <path d="M1915.17,1983.65C1922.25,1983.65 1930.19,1985.43 1933.38,1990.68C1933.84,1991.43 1934.93,1992.45 1935.17,1992.77C1935.29,1992.94 1935.41,1993.12 1935.53,1993.29C1936.45,1994.67 1938.01,1996.63 1938.32,1997.16C1939.93,1999.91 1940.83,2002.73 1940.83,2005.26C1940.83,2008.6 1941.88,2014.52 1953.57,2017.94C1944.88,2017.63 1923.71,2021.44 1914.7,2021.44C1905.99,2021.44 1890.61,2019.61 1878.29,2019.75C1874.19,2019.8 1891.62,2012.63 1888.57,2005.26C1887.5,2002.68 1888.74,2000.04 1891.06,1997.68C1891.32,1997.42 1892.29,1996.66 1892.73,1996.18C1892.93,1995.96 1893.15,1995.75 1893.38,1995.55C1893.59,1995.37 1893.79,1989.22 1893.8,1989.5C1893.8,1989.67 1894.28,1995.01 1894.65,1994.61C1894.73,1994.52 1894.86,1994.48 1894.96,1994.42C1895.26,1994.23 1895.75,1986.63 1895.73,1986.99C1895.71,1987.32 1896.21,1993.93 1896.66,1993.48C1897.08,1993.05 1897.74,1992.94 1898.26,1992.68C1902.75,1990.42 1908.95,1983.65 1915.17,1983.65Z" style="fill:rgb(50,38,56);"/>
                    </g>
                </g>
                <g transform="matrix(0.221795,0,0,0.342391,628.852,163.008)">
                    <path d="M5380.45,1934.77L5381.08,1933.4L5380.39,1933.23L5380.53,1932.81L5381.22,1932.27L5381.75,1932.21L5381.57,1931.3L5381.06,1930.64L5381.49,1929.03L5381.9,1928.16L5382.98,1927.65L5382.88,1926.82L5383.36,1925.61L5385.36,1925.34L5386.17,1927.91L5386.51,1929.58L5386.23,1931.77L5385.76,1932.04L5385.84,1932.81L5386.08,1933.55L5385.57,1934.66L5384.31,1936.25L5382.03,1936.28L5380.75,1936.34L5380.49,1935.01" style="fill:rgb(50,38,56);"/>
                    <clipPath id="_clip13">
                        <path d="M5380.45,1934.77L5381.08,1933.4L5380.39,1933.23L5380.53,1932.81L5381.22,1932.27L5381.75,1932.21L5381.57,1931.3L5381.06,1930.64L5381.49,1929.03L5381.9,1928.16L5382.98,1927.65L5382.88,1926.82L5383.36,1925.61L5385.36,1925.34L5386.17,1927.91L5386.51,1929.58L5386.23,1931.77L5385.76,1932.04L5385.84,1932.81L5386.08,1933.55L5385.57,1934.66L5384.31,1936.25L5382.03,1936.28L5380.75,1936.34L5380.49,1935.01"/>
                    </clipPath>
                    <g clip-path="url(#_clip13)">
                        <g transform="matrix(1,0,0,1,0.0208078,1.24874)">
                            <path d="M5380.45,1934.77L5381.08,1933.4L5380.39,1933.23L5380.53,1932.81L5381.22,1932.27L5381.75,1932.21L5381.57,1931.3L5381.06,1930.64L5381.49,1929.03L5381.9,1928.16L5382.98,1927.65L5382.88,1926.82L5383.36,1925.61L5385.36,1925.34L5386.17,1927.91L5386.51,1929.58L5386.23,1931.77L5385.76,1932.04L5385.84,1932.81L5386.08,1933.55L5385.57,1934.66L5384.31,1936.25L5382.03,1936.28L5380.75,1936.34L5380.49,1935.01" style="fill:rgb(82,40,41);"/>
                        </g>
                    </g>
                </g>
                <g transform="matrix(0.221795,0,0,0.342391,628.852,163.008)">
                    <path d="M5414.59,1956.6L5417.72,1957.56L5422.52,1957.25L5422.04,1953.65L5421.27,1946.39L5421.48,1942.93L5421.69,1940.66L5422.88,1938.8L5424.96,1936.37L5427.11,1936.11L5424.35,1926.44L5422.48,1920.65L5421.57,1917.85L5420.38,1916.78L5420.17,1916.11L5422.56,1915.95L5422.3,1914.82L5420.02,1914.67L5418.86,1913.12L5416.29,1913.49L5415.5,1915.9L5414.05,1917.22L5415.59,1917.67L5416.4,1919.69L5416.56,1924.85L5416.85,1927.09L5416.06,1932.12L5415.43,1935.75L5415.43,1940.03L5416.08,1942.08L5415.25,1945.38L5416.1,1946.75L5415.74,1949.39L5416.44,1950.22L5415.57,1951.17L5416.4,1952.9L5417.26,1955.2L5414.59,1956.6" style="fill:rgb(82,40,41);"/>
                    <clipPath id="_clip14">
                        <path d="M5414.59,1956.6L5417.72,1957.56L5422.52,1957.25L5422.04,1953.65L5421.27,1946.39L5421.48,1942.93L5421.69,1940.66L5422.88,1938.8L5424.96,1936.37L5427.11,1936.11L5424.35,1926.44L5422.48,1920.65L5421.57,1917.85L5420.38,1916.78L5420.17,1916.11L5422.56,1915.95L5422.3,1914.82L5420.02,1914.67L5418.86,1913.12L5416.29,1913.49L5415.5,1915.9L5414.05,1917.22L5415.59,1917.67L5416.4,1919.69L5416.56,1924.85L5416.85,1927.09L5416.06,1932.12L5415.43,1935.75L5415.43,1940.03L5416.08,1942.08L5415.25,1945.38L5416.1,1946.75L5415.74,1949.39L5416.44,1950.22L5415.57,1951.17L5416.4,1952.9L5417.26,1955.2L5414.59,1956.6"/>
                    </clipPath>
                    <g clip-path="url(#_clip14)">
                        <g transform="matrix(1,0,0,1,0.804582,0.413577)">
                            <path d="M5414.59,1956.6L5417.72,1957.56L5422.52,1957.25L5422.04,1953.65L5421.27,1946.39L5421.48,1942.93L5421.69,1940.66L5422.88,1938.8L5424.96,1936.37L5427.11,1936.11L5424.35,1926.44L5422.48,1920.65L5421.57,1917.85L5420.38,1916.78L5420.17,1916.11L5422.56,1915.95L5422.3,1914.82L5420.02,1914.67L5418.86,1913.12L5416.29,1913.49L5415.5,1915.9L5414.05,1917.22L5415.59,1917.67L5416.4,1919.69L5416.56,1924.85L5416.85,1927.09L5416.06,1932.12L5415.43,1935.75L5415.43,1940.03L5416.08,1942.08L5415.25,1945.38L5416.1,1946.75L5415.74,1949.39L5416.44,1950.22L5415.57,1951.17L5416.4,1952.9L5417.26,1955.2L5414.59,1956.6" style="fill:rgb(50,38,56);"/>
                        </g>
                    </g>
                </g>
            </g>
        </g>
        <g transform="matrix(6.45239,0,0,4.17975,-6764.53,-1550.47)">
            <g transform="matrix(0.221795,0,0,0.342391,628.786,158.581)">
                <path d="M5354.3,1912.12L5353.54,1910.94L5352.36,1910.79L5350.91,1911.13L5350.2,1912.87L5350.52,1914.75L5348.18,1915.56L5346.8,1918.23L5346.69,1924.16L5347.9,1927.67L5348.66,1931.68L5348.95,1933.04L5348.13,1936.41L5346.89,1939.65L5346.77,1945.45L5347.44,1949.15L5348.85,1950.43L5351.74,1950.21L5353.71,1950.34L5355.6,1950.12L5354.53,1948.87L5353.89,1948.03L5353.36,1946.25L5354.32,1945.15L5353.62,1944.17L5353.54,1942.28L5354.77,1940.1L5354.61,1938.73L5355.14,1934.13L5354.85,1931.94L5354.42,1929.3L5354.35,1928.22L5355.81,1926.12L5355.63,1924.44L5355.26,1922.82L5355.07,1919.98L5354.83,1918.41L5353.85,1916.12L5353.97,1914.93L5354.59,1915L5354.48,1913.74L5354.65,1912.94L5354.3,1912.12" style="fill:rgb(82,40,41);"/>
                <clipPath id="_clip15">
                    <path d="M5354.3,1912.12L5353.54,1910.94L5352.36,1910.79L5350.91,1911.13L5350.2,1912.87L5350.52,1914.75L5348.18,1915.56L5346.8,1918.23L5346.69,1924.16L5347.9,1927.67L5348.66,1931.68L5348.95,1933.04L5348.13,1936.41L5346.89,1939.65L5346.77,1945.45L5347.44,1949.15L5348.85,1950.43L5351.74,1950.21L5353.71,1950.34L5355.6,1950.12L5354.53,1948.87L5353.89,1948.03L5353.36,1946.25L5354.32,1945.15L5353.62,1944.17L5353.54,1942.28L5354.77,1940.1L5354.61,1938.73L5355.14,1934.13L5354.85,1931.94L5354.42,1929.3L5354.35,1928.22L5355.81,1926.12L5355.63,1924.44L5355.26,1922.82L5355.07,1919.98L5354.83,1918.41L5353.85,1916.12L5353.97,1914.93L5354.59,1915L5354.48,1913.74L5354.65,1912.94L5354.3,1912.12"/>
                </clipPath>
                <g clip-path="url(#_clip15)">
                    <g transform="matrix(1,0,0,1,-0.675105,0.0889751)">
                        <path d="M5354.3,1912.12L5353.54,1910.94L5352.36,1910.79L5350.91,1911.13L5350.2,1912.87L5350.52,1914.75L5348.18,1915.56L5346.8,1918.23L5346.69,1924.16L5347.9,1927.67L5348.66,1931.68L5348.95,1933.04L5348.13,1936.41L5346.89,1939.65L5346.77,1945.45L5347.44,1949.15L5348.85,1950.43L5351.74,1950.21L5353.71,1950.34L5355.6,1950.12L5354.53,1948.87L5353.89,1948.03L5353.36,1946.25L5354.32,1945.15L5353.62,1944.17L5353.54,1942.28L5354.77,1940.1L5354.61,1938.73L5355.14,1934.13L5354.85,1931.94L5354.42,1929.3L5354.35,1928.22L5355.81,1926.12L5355.63,1924.44L5355.26,1922.82L5355.07,1919.98L5354.83,1918.41L5353.85,1916.12L5353.97,1914.93L5354.59,1915L5354.48,1913.74L5354.65,1912.94L5354.3,1912.12" style="fill:rgb(50,38,56);"/>
                    </g>
                </g>
            </g>
        </g>
        <g transform="matrix(6.45239,0,0,4.17975,-6764.53,-1550.47)">
            <g transform="matrix(0.221795,0,0,0.342391,628.781,158.581)">
                <path d="M5369.84,1928.74L5369.7,1927.91L5369.7,1927L5370.2,1926.26L5371.21,1926.07L5372.02,1926.68L5372,1927.67L5372.04,1928.64L5372.95,1929.47L5373.96,1930.89L5373.94,1930.36L5374.78,1929.59L5375.69,1928.35L5376.07,1928.14L5375.94,1927.35L5376.2,1926.25L5377.15,1925.92L5378.08,1926.2L5378.33,1927.1L5378.33,1927.69L5379.26,1928.23L5379.98,1929.82L5380.15,1931.34L5380.3,1932.37L5380.09,1932.54L5379.98,1933.36L5379.48,1934.95L5378.33,1935.45L5377.56,1936.67L5376.32,1937.01L5375.15,1937.11L5373.59,1937.64L5373.39,1936.5L5373.01,1935.83L5372.41,1937.02L5370.97,1937.25L5369.09,1936.69L5368.05,1936.49L5368.05,1935.14L5367.43,1935.06L5367.44,1934.04L5368.46,1932.38L5368.62,1930.81L5369.3,1929.42L5369.84,1928.74" style="fill:rgb(50,38,56);"/>
                <clipPath id="_clip16">
                    <path d="M5369.84,1928.74L5369.7,1927.91L5369.7,1927L5370.2,1926.26L5371.21,1926.07L5372.02,1926.68L5372,1927.67L5372.04,1928.64L5372.95,1929.47L5373.96,1930.89L5373.94,1930.36L5374.78,1929.59L5375.69,1928.35L5376.07,1928.14L5375.94,1927.35L5376.2,1926.25L5377.15,1925.92L5378.08,1926.2L5378.33,1927.1L5378.33,1927.69L5379.26,1928.23L5379.98,1929.82L5380.15,1931.34L5380.3,1932.37L5380.09,1932.54L5379.98,1933.36L5379.48,1934.95L5378.33,1935.45L5377.56,1936.67L5376.32,1937.01L5375.15,1937.11L5373.59,1937.64L5373.39,1936.5L5373.01,1935.83L5372.41,1937.02L5370.97,1937.25L5369.09,1936.69L5368.05,1936.49L5368.05,1935.14L5367.43,1935.06L5367.44,1934.04L5368.46,1932.38L5368.62,1930.81L5369.3,1929.42L5369.84,1928.74"/>
                </clipPath>
                <g clip-path="url(#_clip16)">
                    <g transform="matrix(1,0,0,1,0.844708,0.886543)">
                        <path d="M5369.84,1928.74L5369.7,1927.91L5369.7,1927L5370.2,1926.26L5371.21,1926.07L5372.02,1926.68L5372,1927.67L5372.04,1928.64L5372.95,1929.47L5373.96,1930.89L5373.94,1930.36L5374.78,1929.59L5375.69,1928.35L5376.07,1928.14L5375.94,1927.35L5376.2,1926.25L5377.15,1925.92L5378.08,1926.2L5378.33,1927.1L5378.33,1927.69L5379.26,1928.23L5379.98,1929.82L5380.15,1931.34L5380.3,1932.37L5380.09,1932.54L5379.98,1933.36L5379.48,1934.95L5378.33,1935.45L5377.56,1936.67L5376.32,1937.01L5375.15,1937.11L5373.59,1937.64L5373.39,1936.5L5373.01,1935.83L5372.41,1937.02L5370.97,1937.25L5369.09,1936.69L5368.05,1936.49L5368.05,1935.14L5367.43,1935.06L5367.44,1934.04L5368.46,1932.38L5368.62,1930.81L5369.3,1929.42L5369.84,1928.74" style="fill:rgb(82,40,41);"/>
                    </g>
                </g>
            </g>
        </g>
        <g transform="matrix(6.45239,0,0,4.17975,-6764.53,-1550.47)">
            <g transform="matrix(0.221795,0,0,0.342391,628.786,158.581)">
                <path d="M5407.69,1934.2L5407.55,1935.13L5407.67,1935.86L5408.35,1935.91L5409.25,1934.88L5409.6,1935.84L5410.41,1936.02L5410.84,1936.02L5411.11,1935.22L5412.4,1935.31L5413.75,1934.29L5413.79,1930.16L5413.44,1928.32L5412.32,1926.48L5411.83,1926.34L5411.91,1924.98L5411.16,1924.33L5410.16,1924.33L5409.42,1924.98L5409.43,1925.8L5409.71,1926.96L5408.81,1927.27L5408.29,1928.38L5407.97,1929.82L5408.03,1930.8L5408.18,1931.99L5407.86,1933.14L5407.69,1934.2Z" style="fill:rgb(50,38,56);"/>
                <clipPath id="_clip17">
                    <path d="M5407.69,1934.2L5407.55,1935.13L5407.67,1935.86L5408.35,1935.91L5409.25,1934.88L5409.6,1935.84L5410.41,1936.02L5410.84,1936.02L5411.11,1935.22L5412.4,1935.31L5413.75,1934.29L5413.79,1930.16L5413.44,1928.32L5412.32,1926.48L5411.83,1926.34L5411.91,1924.98L5411.16,1924.33L5410.16,1924.33L5409.42,1924.98L5409.43,1925.8L5409.71,1926.96L5408.81,1927.27L5408.29,1928.38L5407.97,1929.82L5408.03,1930.8L5408.18,1931.99L5407.86,1933.14L5407.69,1934.2Z"/>
                </clipPath>
                <g clip-path="url(#_clip17)">
                    <g transform="matrix(1,0,0,1,-0.560432,-0.159786)">
                        <path d="M5407.69,1934.2L5407.55,1935.13L5407.67,1935.86L5408.35,1935.91L5409.25,1934.88L5409.6,1935.84L5410.41,1936.02L5410.84,1936.02L5411.11,1935.22L5412.4,1935.31L5413.75,1934.29L5413.79,1930.16L5413.44,1928.32L5412.32,1926.48L5411.83,1926.34L5411.91,1924.98L5411.16,1924.33L5410.16,1924.33L5409.42,1924.98L5409.43,1925.8L5409.71,1926.96L5408.81,1927.27L5408.29,1928.38L5407.97,1929.82L5408.03,1930.8L5408.18,1931.99L5407.86,1933.14L5407.69,1934.2Z" style="fill:rgb(82,40,41);"/>
                    </g>
                </g>
            </g>
        </g>
    </g>
</svg>
