<?xml version="1.0" encoding="UTF-8" standalone="no"?>
<!DOCTYPE svg PUBLIC "-//W3C//DTD SVG 1.1//EN" "http://www.w3.org/Graphics/SVG/1.1/DTD/svg11.dtd">
<svg width="100%" height="100%" viewBox="0 0 2871 330" version="1.1" xmlns="http://www.w3.org/2000/svg" xmlns:xlink="http://www.w3.org/1999/xlink" xml:space="preserve" xmlns:serif="http://www.serif.com/" style="fill-rule:evenodd;clip-rule:evenodd;stroke-linejoin:round;stroke-miterlimit:1.41421;">
    <g transform="matrix(1,0,0,1,-3104.24,-1863.41)">
        <g transform="matrix(6.45239,0,0,4.17975,-6764.53,-1550.47)">
            <g>
                <g transform="matrix(-0.154981,0,0,0.239249,2196.05,326.161)">
                    <path d="M1499.72,2147.98L1728.56,2125.86L1789.84,2108.97L1874.64,2108.97L1950.25,2101.98L2055.19,2101.98L2162.96,2113.56L2271.28,2087.6L2491.39,2050.62L2616.12,2086.08L2739.18,2059.41L2889.58,2052.56L2962.05,2066.88L3005.04,2066.88L3140.38,2072.68L3219.79,2081L4267.16,2096.73L4301.01,2316.93L2550.16,2355.55L1430.01,2380.27L1499.72,2147.98Z" style="fill:rgb(65,52,72);"/>
                </g>
                <g transform="matrix(-0.068985,-0.000155272,-0.000100582,0.106494,1959.72,616.309)">
                    <path d="M1915.17,1983.65C1922.25,1983.65 1930.19,1985.43 1933.38,1990.68C1933.84,1991.43 1934.71,1986.75 1934.89,1986.47C1935.1,1986.13 1934.93,1992.45 1935.17,1992.77C1935.29,1992.94 1935.41,1993.12 1935.53,1993.29C1936.45,1994.67 1937.57,1987.81 1937.67,1987.57C1937.91,1986.99 1938.01,1996.63 1938.32,1997.16C1939.93,1999.91 1940.83,2002.73 1940.83,2005.26C1940.83,2008.6 1941.88,2014.52 1953.57,2017.94C1944.88,2017.63 1923.71,2021.44 1914.7,2021.44C1905.99,2021.44 1890.61,2019.61 1878.29,2019.75C1874.19,2019.8 1891.62,2012.63 1888.57,2005.26C1887.5,2002.68 1888.74,2000.04 1891.06,1997.68C1891.32,1997.42 1891.74,1988.01 1891.97,1988.31C1892.04,1988.4 1892.29,1996.66 1892.73,1996.18C1892.93,1995.96 1893.15,1995.75 1893.38,1995.55C1893.59,1995.37 1893.79,1989.22 1893.8,1989.5C1893.8,1989.67 1894.28,1995.01 1894.65,1994.61C1894.73,1994.52 1894.86,1994.48 1894.96,1994.42C1895.26,1994.23 1895.75,1986.63 1895.73,1986.99C1895.71,1987.32 1896.21,1993.93 1896.66,1993.48C1897.08,1993.05 1897.74,1992.94 1898.26,1992.68C1902.75,1990.42 1908.95,1983.65 1915.17,1983.65Z" style="fill:rgb(50,38,56);"/>
                    <g transform="matrix(0.355973,0,0,0.355973,1189.61,1302.29)">
                        <path d="M1915.17,1983.65C1922.25,1983.65 1930.19,1985.43 1933.38,1990.68C1933.84,1991.43 1934.93,1992.45 1935.17,1992.77C1935.29,1992.94 1935.41,1993.12 1935.53,1993.29C1936.45,1994.67 1938.01,1996.63 1938.32,1997.16C1939.93,1999.91 1940.83,2002.73 1940.83,2005.26C1940.83,2008.6 1941.88,2014.52 1953.57,2017.94C1944.88,2017.63 1923.71,2021.44 1914.7,2021.44C1905.99,2021.44 1890.61,2019.61 1878.29,2019.75C1874.19,2019.8 1891.62,2012.63 1888.57,2005.26C1887.5,2002.68 1888.74,2000.04 1891.06,1997.68C1891.32,1997.42 1892.29,1996.66 1892.73,1996.18C1892.93,1995.96 1893.15,1995.75 1893.38,1995.55C1893.59,1995.37 1893.79,1989.22 1893.8,1989.5C1893.8,1989.67 1894.28,1995.01 1894.65,1994.61C1894.73,1994.52 1894.86,1994.48 1894.96,1994.42C1895.26,1994.23 1895.75,1986.63 1895.73,1986.99C1895.71,1987.32 1896.21,1993.93 1896.66,1993.48C1897.08,1993.05 1897.74,1992.94 1898.26,1992.68C1902.75,1990.42 1908.95,1983.65 1915.17,1983.65Z" style="fill:rgb(50,38,56);"/>
                    </g>
                    <g transform="matrix(0.355973,0,0,0.355973,878.813,1369.67)">
                        <path d="M1915.17,1983.65C1922.25,1983.65 1930.19,1985.43 1933.38,1990.68C1933.84,1991.43 1934.93,1992.45 1935.17,1992.77C1935.29,1992.94 1935.41,1993.12 1935.53,1993.29C1936.45,1994.67 1938.01,1996.63 1938.32,1997.16C1939.93,1999.91 1940.83,2002.73 1940.83,2005.26C1940.83,2008.6 1941.88,2014.52 1953.57,2017.94C1944.88,2017.63 1923.71,2021.44 1914.7,2021.44C1905.99,2021.44 1890.61,2019.61 1878.29,2019.75C1874.19,2019.8 1891.62,2012.63 1888.57,2005.26C1887.5,2002.68 1888.74,2000.04 1891.06,1997.68C1891.32,1997.42 1892.29,1996.66 1892.73,1996.18C1892.93,1995.96 1893.15,1995.75 1893.38,1995.55C1893.59,1995.37 1893.79,1989.22 1893.8,1989.5C1893.8,1989.67 1894.28,1995.01 1894.65,1994.61C1894.73,1994.52 1894.86,1994.48 1894.96,1994.42C1895.26,1994.23 1895.75,1986.63 1895.73,1986.99C1895.71,1987.32 1896.21,1993.93 1896.66,1993.48C1897.08,1993.05 1897.74,1992.94 1898.26,1992.68C1902.75,1990.42 1908.95,1983.65 1915.17,1983.65Z" style="fill:rgb(50,38,56);"/>
                    </g>
                </g>
            </g>
        </g>
    </g>
</svg>
